<svg width="52" height="68" viewBox="0 0 52 68" fill="none" xmlns="http://www.w3.org/2000/svg">
<path d="M1.24076 58.0646C0.446155 59.4913 0.252925 61.1763 0.703579 62.7491C1.15423 64.3219 2.21185 65.6535 3.64378 66.451C5.0757 67.2485 6.76464 67.4466 8.33903 67.0017C9.91343 66.5568 11.2443 65.5054 12.0389 64.0787C12.4324 63.3722 12.6823 62.595 12.7745 61.7912C12.8667 60.9874 12.7992 60.1729 12.5761 59.3941C12.353 58.6154 11.9785 57.8877 11.474 57.2525C10.9695 56.6173 10.3449 56.0872 9.6359 55.6923C8.92688 55.2974 8.14731 55.0455 7.3417 54.951C6.53609 54.8565 5.72021 54.9213 4.94065 55.1415C4.16109 55.3618 3.43311 55.7333 2.79828 56.2349C2.16345 56.7364 1.63421 57.3582 1.24076 58.0646ZM27.4632 46.0647C37.3798 46.1273 44.6032 42.2334 48.917 34.4881C56.3257 21.186 49.1138 9.36171 38.6773 3.54906C28.5134 -2.11177 13.6115 -0.770033 6.01375 12.8716C5.24229 14.2567 5.05469 15.8927 5.49222 17.4197C5.92974 18.9466 6.95656 20.2394 8.34678 21.0137C9.737 21.788 11.3767 21.9804 12.9053 21.5484C14.4338 21.1165 15.7259 20.0957 16.4974 18.7105C20.5377 11.4562 27.8119 11.183 32.8597 13.9944C36.7754 16.1753 42.7064 20.9771 38.4333 28.6492C36.9179 31.3702 34.4312 34.1457 27.5033 34.1054C22.8003 34.0658 13.8564 35.7834 10.1651 42.411C9.39367 43.7962 9.20607 45.4321 9.64359 46.9591C10.0811 48.486 11.1079 49.7789 12.4982 50.5532C13.8884 51.3274 15.5281 51.5198 17.0567 51.0878C18.5852 50.6559 19.8773 49.6351 20.6488 48.2499C21.1898 47.2785 24.5897 46.0449 27.4632 46.0647Z" fill="black"/>
</svg>
